<mxfile host="app.diagrams.net" modified="2021-05-28T15:41:43.459Z" agent="5.0 (Windows NT 10.0; Win64; x64) AppleWebKit/537.36 (KHTML, like Gecko) Chrome/90.0.4430.212 Safari/537.36 Edg/90.0.818.66" etag="vj_LcgCqshkn1rLGF4dL" version="14.6.9" type="github">
  <diagram id="R21gcppLxR4moMgv7AVL" name="Page-1">
    <mxGraphModel dx="2061" dy="867" grid="1" gridSize="10" guides="1" tooltips="1" connect="1" arrows="1" fold="1" page="1" pageScale="1" pageWidth="827" pageHeight="1169" math="0" shadow="0">
      <root>
        <mxCell id="0" />
        <mxCell id="1" parent="0" />
        <mxCell id="omZHQ5DrtYQxjVNDTIbL-11" style="edgeStyle=orthogonalEdgeStyle;rounded=0;orthogonalLoop=1;jettySize=auto;html=1;exitX=0.5;exitY=1;exitDx=0;exitDy=0;" edge="1" parent="1" source="omZHQ5DrtYQxjVNDTIbL-1" target="omZHQ5DrtYQxjVNDTIbL-2">
          <mxGeometry relative="1" as="geometry" />
        </mxCell>
        <mxCell id="omZHQ5DrtYQxjVNDTIbL-1" value="1" style="ellipse;whiteSpace=wrap;html=1;aspect=fixed;" vertex="1" parent="1">
          <mxGeometry x="470" y="200" width="80" height="80" as="geometry" />
        </mxCell>
        <mxCell id="omZHQ5DrtYQxjVNDTIbL-12" style="edgeStyle=orthogonalEdgeStyle;rounded=0;orthogonalLoop=1;jettySize=auto;html=1;exitX=1;exitY=0.5;exitDx=0;exitDy=0;entryX=0;entryY=0;entryDx=0;entryDy=0;" edge="1" parent="1" source="omZHQ5DrtYQxjVNDTIbL-2" target="omZHQ5DrtYQxjVNDTIbL-3">
          <mxGeometry relative="1" as="geometry" />
        </mxCell>
        <mxCell id="omZHQ5DrtYQxjVNDTIbL-13" style="edgeStyle=orthogonalEdgeStyle;rounded=0;orthogonalLoop=1;jettySize=auto;html=1;exitX=0.5;exitY=1;exitDx=0;exitDy=0;" edge="1" parent="1" source="omZHQ5DrtYQxjVNDTIbL-2" target="omZHQ5DrtYQxjVNDTIbL-4">
          <mxGeometry relative="1" as="geometry" />
        </mxCell>
        <mxCell id="omZHQ5DrtYQxjVNDTIbL-2" value="2" style="ellipse;whiteSpace=wrap;html=1;aspect=fixed;" vertex="1" parent="1">
          <mxGeometry x="470" y="340" width="80" height="80" as="geometry" />
        </mxCell>
        <mxCell id="omZHQ5DrtYQxjVNDTIbL-14" style="edgeStyle=orthogonalEdgeStyle;rounded=0;orthogonalLoop=1;jettySize=auto;html=1;exitX=0;exitY=1;exitDx=0;exitDy=0;entryX=1;entryY=0.5;entryDx=0;entryDy=0;" edge="1" parent="1" source="omZHQ5DrtYQxjVNDTIbL-3" target="omZHQ5DrtYQxjVNDTIbL-4">
          <mxGeometry relative="1" as="geometry" />
        </mxCell>
        <mxCell id="omZHQ5DrtYQxjVNDTIbL-3" value="3" style="ellipse;whiteSpace=wrap;html=1;aspect=fixed;" vertex="1" parent="1">
          <mxGeometry x="610" y="400" width="80" height="80" as="geometry" />
        </mxCell>
        <mxCell id="omZHQ5DrtYQxjVNDTIbL-15" style="edgeStyle=orthogonalEdgeStyle;rounded=0;orthogonalLoop=1;jettySize=auto;html=1;exitX=1;exitY=1;exitDx=0;exitDy=0;entryX=0;entryY=0.5;entryDx=0;entryDy=0;" edge="1" parent="1" source="omZHQ5DrtYQxjVNDTIbL-4" target="omZHQ5DrtYQxjVNDTIbL-6">
          <mxGeometry relative="1" as="geometry" />
        </mxCell>
        <mxCell id="omZHQ5DrtYQxjVNDTIbL-17" style="edgeStyle=orthogonalEdgeStyle;rounded=0;orthogonalLoop=1;jettySize=auto;html=1;exitX=0;exitY=0.5;exitDx=0;exitDy=0;entryX=0;entryY=0.5;entryDx=0;entryDy=0;" edge="1" parent="1" source="omZHQ5DrtYQxjVNDTIbL-4" target="omZHQ5DrtYQxjVNDTIbL-5">
          <mxGeometry relative="1" as="geometry" />
        </mxCell>
        <mxCell id="omZHQ5DrtYQxjVNDTIbL-4" value="4" style="ellipse;whiteSpace=wrap;html=1;aspect=fixed;" vertex="1" parent="1">
          <mxGeometry x="470" y="500" width="80" height="80" as="geometry" />
        </mxCell>
        <mxCell id="omZHQ5DrtYQxjVNDTIbL-18" style="edgeStyle=orthogonalEdgeStyle;rounded=0;orthogonalLoop=1;jettySize=auto;html=1;exitX=0;exitY=1;exitDx=0;exitDy=0;entryX=1;entryY=0;entryDx=0;entryDy=0;" edge="1" parent="1" source="omZHQ5DrtYQxjVNDTIbL-5" target="omZHQ5DrtYQxjVNDTIbL-7">
          <mxGeometry relative="1" as="geometry" />
        </mxCell>
        <mxCell id="omZHQ5DrtYQxjVNDTIbL-19" style="edgeStyle=orthogonalEdgeStyle;rounded=0;orthogonalLoop=1;jettySize=auto;html=1;exitX=1;exitY=1;exitDx=0;exitDy=0;" edge="1" parent="1" source="omZHQ5DrtYQxjVNDTIbL-5" target="omZHQ5DrtYQxjVNDTIbL-8">
          <mxGeometry relative="1" as="geometry" />
        </mxCell>
        <mxCell id="omZHQ5DrtYQxjVNDTIbL-5" value="5" style="ellipse;whiteSpace=wrap;html=1;aspect=fixed;" vertex="1" parent="1">
          <mxGeometry x="470" y="660" width="80" height="80" as="geometry" />
        </mxCell>
        <mxCell id="omZHQ5DrtYQxjVNDTIbL-16" style="edgeStyle=orthogonalEdgeStyle;rounded=0;orthogonalLoop=1;jettySize=auto;html=1;exitX=0;exitY=1;exitDx=0;exitDy=0;entryX=0.5;entryY=1;entryDx=0;entryDy=0;" edge="1" parent="1" source="omZHQ5DrtYQxjVNDTIbL-6" target="omZHQ5DrtYQxjVNDTIbL-4">
          <mxGeometry relative="1" as="geometry" />
        </mxCell>
        <mxCell id="omZHQ5DrtYQxjVNDTIbL-6" value="6" style="ellipse;whiteSpace=wrap;html=1;aspect=fixed;" vertex="1" parent="1">
          <mxGeometry x="610" y="560" width="80" height="80" as="geometry" />
        </mxCell>
        <mxCell id="omZHQ5DrtYQxjVNDTIbL-22" style="edgeStyle=orthogonalEdgeStyle;rounded=0;orthogonalLoop=1;jettySize=auto;html=1;exitX=0.5;exitY=1;exitDx=0;exitDy=0;entryX=0;entryY=0.5;entryDx=0;entryDy=0;" edge="1" parent="1" source="omZHQ5DrtYQxjVNDTIbL-7" target="omZHQ5DrtYQxjVNDTIbL-9">
          <mxGeometry relative="1" as="geometry" />
        </mxCell>
        <mxCell id="omZHQ5DrtYQxjVNDTIbL-7" value="7" style="ellipse;whiteSpace=wrap;html=1;aspect=fixed;" vertex="1" parent="1">
          <mxGeometry x="360" y="760" width="80" height="80" as="geometry" />
        </mxCell>
        <mxCell id="omZHQ5DrtYQxjVNDTIbL-21" style="edgeStyle=orthogonalEdgeStyle;rounded=0;orthogonalLoop=1;jettySize=auto;html=1;exitX=0.5;exitY=1;exitDx=0;exitDy=0;entryX=1;entryY=0.5;entryDx=0;entryDy=0;" edge="1" parent="1" source="omZHQ5DrtYQxjVNDTIbL-8" target="omZHQ5DrtYQxjVNDTIbL-9">
          <mxGeometry relative="1" as="geometry" />
        </mxCell>
        <mxCell id="omZHQ5DrtYQxjVNDTIbL-8" value="8" style="ellipse;whiteSpace=wrap;html=1;aspect=fixed;" vertex="1" parent="1">
          <mxGeometry x="560" y="760" width="80" height="80" as="geometry" />
        </mxCell>
        <mxCell id="omZHQ5DrtYQxjVNDTIbL-9" value="9" style="ellipse;whiteSpace=wrap;html=1;aspect=fixed;" vertex="1" parent="1">
          <mxGeometry x="460" y="860" width="80" height="80" as="geometry" />
        </mxCell>
      </root>
    </mxGraphModel>
  </diagram>
</mxfile>
